PathFileType	4	(X/Y/Z)	C:\Users\WrightLab\Desktop\Jo\P1_boxCal34.trc
DataRate	CameraRate	NumFrames	NumMarkers	Units	OrigDataRate	OrigDataStartFrame	OrigNumFrames
100.00	100.00	       11	19	mm	100.00	341	       544
Frame#	Time	Headset_Front			Headset_Back			Headset_Left			Headset_Right			Left_Shoulder			Right_Shoulder			Sternum			C7			Left Elbow			Right Elbow			Left Wrist			Right Wrist			Left ASIS			Right ASIS			S2			Left Knee			Right Knee			Left Ankle			Right Ankle			
		X1	Y1	Z1	X2	Y2	Z2	X3	Y3	Z3	X4	Y4	Z4	X5	Y5	Z5	X6	Y6	Z6	X7	Y7	Z7	X8	Y8	Z8	X9	Y9	Z9	X10	Y10	Z10	X11	Y11	Z11	X12	Y12	Z12	X13	Y13	Z13	X14	Y14	Z14	X15	Y15	Z15	X16	Y16	Z16	X17	Y17	Z17	X18	Y18	Z18	X19	Y19	Z19	

341	3.400	43.66799	1421.95203	1418.89478	12.14234	1512.24597	1130.57556	132.92410	1474.08008	1238.64539	-72.25335	1438.62805	1325.23816	208.38484	1279.03223	1113.39319	-137.02293	1270.24939	1283.95972	84.02884	1186.03174	1332.02783	-4.13131	1279.09082	1092.76392	224.43919	968.29877	1007.81274	-215.93498	990.09760	1292.70825	321.05014	778.57581	1015.15643	-158.29146	784.10394	1443.03210	188.62564	903.50513	1317.79858	-2.67306	893.78448	1381.56519	-8.69139	889.74908	1044.05908	277.74292	508.43320	1284.85999	-91.93714	438.69083	1243.25256	327.92416	139.38153	1299.95276	288.96829	55.63919	1274.31531	
342	3.410	45.17998	1423.63098	1428.87671	19.67608	1513.52026	1139.70154	138.61372	1475.95068	1250.23413	-68.66276	1440.91174	1332.86194	215.36118	1281.38708	1126.76282	-132.25136	1272.51123	1290.92065	87.11934	1187.54846	1341.37439	3.48715	1281.05505	1101.86548	233.52695	970.33588	1021.67999	-211.86606	992.93152	1297.86865	330.49158	781.16602	1032.14575	-158.96083	784.67981	1445.24170	192.78188	905.53735	1329.22449	0.92913	895.85541	1389.71008	-0.83819	892.44122	1052.63904	282.86313	511.95425	1295.00696	-84.32130	439.23602	1260.99585	330.53943	140.08368	1302.22705	246.19878	112.97845	1393.84399	
343	3.420	47.49447	1425.42505	1438.31897	25.55125	1515.63818	1148.99695	143.41899	1475.69873	1260.83984	-65.84209	1442.63953	1340.67163	221.61263	1284.48767	1138.94067	-128.03769	1275.05920	1298.26331	90.16157	1188.97290	1350.70630	10.56153	1283.17285	1111.60938	242.89845	973.03955	1034.15820	-208.25076	996.08136	1303.33191	339.85068	783.73706	1048.61511	-160.39674	785.01862	1447.92847	196.94412	908.37781	1340.68213	3.83277	898.53729	1398.16785	5.70886	895.67114	1062.14441	288.07712	514.06091	1304.14661	-76.86896	439.49585	1278.20117	331.64603	138.85178	1304.15088	290.13004	53.81510	1276.84558	
344	3.430	48.75322	1427.39001	1447.93225	32.16825	1517.26880	1158.30298	148.08252	1478.14343	1271.87732	-63.23912	1444.79468	1348.80322	228.09373	1287.61035	1152.11243	-124.02248	1277.55176	1305.70715	93.45647	1190.99048	1361.11719	16.27270	1285.47583	1119.91687	252.63681	975.50812	1048.36536	-205.73083	999.16296	1308.52783	349.73138	786.42969	1066.02905	-161.55226	785.72363	1449.99268	201.51419	911.08276	1353.43433	6.68730	900.62115	1406.48389	12.88285	898.36108	1069.82178	293.66806	514.39014	1312.99219	-71.76783	440.53452	1296.35181	331.38751	137.70953	1305.50708	290.18317	53.75178	1277.30701	
345	3.440	50.24284	1428.97229	1457.43958	37.40483	1519.13000	1167.78442	151.31831	1478.85095	1283.46069	-60.45473	1446.92871	1356.87280	232.85239	1290.03760	1164.03589	-120.44353	1279.81763	1312.47961	95.79353	1192.40503	1370.62769	23.40798	1286.94385	1128.67627	262.60101	977.88776	1061.77820	-203.18669	1001.55518	1314.43481	359.43881	789.16876	1083.75439	-163.45148	786.33063	1452.91394	205.73347	914.06342	1365.44934	9.43799	902.35510	1414.26208	19.89958	900.35669	1078.12463	298.40198	513.08759	1320.88977	-68.85945	442.46841	1314.77576	331.46713	137.52646	1306.45801	246.40826	112.76260	1396.19580	
346	3.450	50.86296	1430.66467	1466.62048	44.31606	1520.75391	1177.14392	156.09117	1480.80688	1294.43616	-57.12285	1449.07959	1364.74341	239.45615	1292.65613	1176.90576	-117.08974	1281.46509	1319.08948	97.66821	1194.55322	1381.40283	29.90316	1289.47668	1137.44885	271.47202	980.80115	1074.94250	-200.95036	1004.05939	1319.90967	368.78998	791.59375	1101.10608	-165.69864	786.80389	1455.22339	209.05255	916.22083	1376.93115	10.57072	904.32721	1422.27026	27.22776	902.16980	1086.56482	302.12082	511.56488	1326.79688	-66.01224	445.50012	1332.40662	331.12717	137.32675	1307.28857	290.94775	52.41057	1276.47791	
347	3.460	52.29662	1432.06885	1476.25134	49.56485	1522.91333	1186.62891	159.34915	1482.24011	1305.35339	-54.78705	1451.40479	1372.68347	244.46133	1294.64124	1189.74329	-114.31519	1283.24170	1325.16980	99.05676	1195.03381	1389.02649	35.87102	1291.51050	1146.57642	282.04407	982.79132	1089.53101	-199.12132	1006.00562	1325.94958	378.57379	794.60284	1119.52808	-167.86349	787.17218	1458.28381	211.95969	918.27020	1388.00574	12.20885	905.55414	1430.26355	34.52147	902.88477	1095.13708	305.72583	509.72641	1332.54797	-61.87024	449.79175	1349.70654	331.32657	136.76689	1307.62427	245.83051	111.96068	1397.95068	
348	3.470	53.15141	1433.51331	1485.27930	56.29099	1524.07520	1196.08655	163.42740	1483.65771	1316.66003	-52.53719	1453.71521	1380.52356	249.78578	1297.34973	1202.77234	-111.83617	1284.63733	1331.12378	100.29305	1197.63794	1399.91504	41.44136	1293.88196	1155.02319	291.64883	986.19287	1102.01941	-197.04370	1007.89886	1331.23401	387.40527	797.83954	1138.35132	-170.60875	787.78241	1461.07849	214.56435	920.07611	1398.41187	12.75112	906.77887	1437.48438	41.08546	904.70868	1103.34485	308.58792	507.71042	1337.34753	-57.75909	456.27411	1368.16162	330.76297	136.67790	1307.79944	245.82846	111.88283	1397.96912	
349	3.480	54.03044	1435.12439	1494.93079	59.91427	1526.83179	1205.79529	167.09082	1486.41187	1328.14880	-50.36337	1454.21729	1385.37817	254.81470	1299.92297	1215.78430	-109.64095	1286.00769	1336.82642	100.43633	1199.27393	1411.15552	47.20386	1296.15845	1163.79480	301.50165	988.41266	1116.78479	-195.66679	1009.72473	1336.31531	396.38565	799.74274	1156.27124	-173.37982	788.75940	1463.96863	215.99919	921.66669	1409.34973	13.08573	908.27240	1444.66492	48.35815	906.77051	1111.42517	311.02905	505.45337	1341.49780	-53.94611	462.03513	1386.16760	329.94006	136.21080	1307.53894	245.99301	110.63715	1398.23682	
350	3.490	53.94053	1436.69373	1504.47180	65.03680	1529.21057	1215.41687	169.73975	1487.61682	1339.04834	-48.41317	1456.04602	1393.20605	258.82034	1301.97400	1229.22046	-107.92106	1287.41504	1342.37744	100.97868	1199.89270	1419.56213	52.92337	1298.82336	1172.31714	310.82730	990.76074	1131.09448	-193.71199	1010.95306	1340.66797	406.17578	802.84827	1176.31714	-176.40511	789.14038	1465.95837	217.90056	923.02985	1418.75330	14.16844	909.02008	1451.95691	55.67743	909.71741	1119.23450	312.23123	503.81015	1344.64673	-49.57162	466.80185	1403.24377	328.73602	135.73158	1307.05164	245.95605	110.43557	1398.04590	
351	3.500	54.34201	1438.35571	1513.81018	69.01595	1531.49060	1225.17676	171.91016	1489.32385	1349.82153	-46.80243	1458.01733	1401.50354	263.01059	1304.01208	1241.43896	-106.25486	1288.76343	1347.85266	101.28422	1200.80664	1427.06042	57.88900	1301.09070	1181.27698	320.33597	993.26526	1145.72131	-191.76114	1012.50403	1344.01135	414.96030	806.97430	1195.19495	-179.82605	789.69464	1468.16443	219.02530	923.58539	1428.28418	14.57986	910.13129	1459.04700	62.10870	913.29199	1127.10474	312.27933	501.42725	1347.42322	-47.28202	472.49750	1419.89087	327.46240	135.27029	1306.41321	245.91832	110.20255	1397.86267	
